<svg xmlns="http://www.w3.org/2000/svg" width="73" height="73" viewBox="0 0 73 73">
  <g id="Group_6" data-name="Group 6" transform="translate(-1811 -49.819)">
    <g id="Polygon_1" data-name="Polygon 1" transform="translate(1811 49.819)" fill="none">
      <path d="M28.679,23.464a8.245,8.245,0,0,1,15.643,0h0a8.244,8.244,0,0,0,5.214,5.214h0a8.245,8.245,0,0,1,0,15.643h0a8.244,8.244,0,0,0-5.214,5.214h0a8.245,8.245,0,0,1-15.643,0h0a8.245,8.245,0,0,0-5.214-5.214h0a8.245,8.245,0,0,1,0-15.643h0a8.245,8.245,0,0,0,5.214-5.214Z" stroke="none"/>
      <path d="M 36.5 20.82691955566406 C 34.6726188659668 20.82691955566406 32.40594863891602 21.76897811889648 31.52462005615234 24.41297149658203 C 30.41136169433594 27.75278854370117 27.75278854370117 30.41136169433594 24.41297149658203 31.52462005615234 C 21.76897811889648 32.40594863891602 20.82691955566406 34.6726188659668 20.82691955566406 36.5 C 20.82691955566406 38.3273811340332 21.76897811889648 40.59405136108398 24.41297149658203 41.47537994384766 C 27.75279998779297 42.58864974975586 30.41136169433594 45.24720764160156 31.52462005615234 48.58702850341797 C 32.40594863891602 51.23102951049805 34.6726188659668 52.17308807373047 36.5 52.17308807373047 C 38.3273811340332 52.17308807373047 40.59403991699219 51.23102951049805 41.47537994384766 48.58702087402344 C 42.58866119384766 45.24720001220703 45.24723052978516 42.58863830566406 48.58703994750977 41.47537994384766 C 51.23102951049805 40.59405136108398 52.17308807373047 38.3273811340332 52.17308807373047 36.5 C 52.17308807373047 34.6726188659668 51.23102951049805 32.40594863891602 48.58702850341797 31.52462005615234 C 45.24721908569336 30.41136169433594 42.58866119384766 27.75279998779297 41.47537994384766 24.41297149658203 C 40.59405136108398 21.76897811889648 38.3273811340332 20.82691955566406 36.5 20.82691955566406 M 36.5 17.82692337036133 C 39.78433990478516 17.82692337036133 43.06867980957031 19.7060432434082 44.32143020629883 23.46429061889648 C 45.14205169677734 25.92613983154297 47.07386016845703 27.85795974731445 49.53570938110352 28.67856979370117 L 49.53572082519531 28.67856979370117 C 57.05220794677734 31.1840705871582 57.05220794677734 41.8159294128418 49.53572082519531 44.32143020629883 L 49.53570938110352 44.32143020629883 C 47.07386016845703 45.14204025268555 45.14205169677734 47.07386016845703 44.32143020629883 49.53570938110352 L 44.32141876220703 49.53572082519531 C 43.06867218017578 53.29396438598633 39.78433609008789 55.17308807373047 36.5 55.17308807373047 C 33.21566009521484 55.17308807373047 29.93132019042969 53.29396438598633 28.67856979370117 49.53572082519531 L 28.67856979370117 49.53570938110352 C 27.85795974731445 47.07386016845703 25.92613983154297 45.14204025268555 23.46429061889648 44.32143020629883 C 15.94779968261719 41.8159294128418 15.94779968261719 31.1840705871582 23.46429061889648 28.67856979370117 C 25.92613983154297 27.85795974731445 27.85795974731445 25.92613983154297 28.67856979370117 23.46429061889648 C 29.93132019042969 19.7060432434082 33.21566009521484 17.82692337036133 36.5 17.82692337036133 Z" stroke="none" fill="#ffefd4"/>
    </g>
    <g id="Polygon_2" data-name="Polygon 2" transform="matrix(0.574, 0.819, -0.819, 0.574, 1854.202, 51.689)" fill="none">
      <path d="M19.909,16.289a5.723,5.723,0,0,1,10.859,0h0a5.723,5.723,0,0,0,3.62,3.62h0a5.723,5.723,0,0,1,0,10.859h0a5.723,5.723,0,0,0-3.62,3.62h0a5.723,5.723,0,0,1-10.859,0h0a5.723,5.723,0,0,0-3.62-3.62h0a5.723,5.723,0,0,1,0-10.859h0A5.723,5.723,0,0,0,19.909,16.289Z" stroke="none"/>
      <path d="M 25.33864784240723 15.3756103515625 C 24.8781681060791 15.3756103515625 23.33095741271973 15.5098991394043 22.7549877166748 17.23780822753906 C 21.89131736755371 19.82881927490234 19.82881736755371 21.89131927490234 17.23780822753906 22.75498962402344 C 15.50990676879883 23.33095932006836 15.37561798095703 24.87816047668457 15.37561798095703 25.3386402130127 C 15.37560653686523 25.79912948608398 15.5098991394043 27.34634017944336 17.23780822753906 27.92230987548828 C 19.82882690429688 28.78598022460938 21.89132690429688 30.84848022460938 22.7549877166748 33.43949127197266 C 23.33095741271973 35.16738891601563 24.8781681060791 35.30168151855469 25.33864784240723 35.30168151855469 C 25.79912757873535 35.30168151855469 27.34633827209473 35.16738891601563 27.92230796813965 33.43947982788086 C 28.78597831726074 30.84848022460938 30.84846878051758 28.78598022460938 33.43948745727539 27.92230033874512 C 35.16739654541016 27.3463306427002 35.30167770385742 25.79912948608398 35.30167770385742 25.3386402130127 C 35.30167770385742 24.87816047668457 35.16739654541016 23.33095932006836 33.43948745727539 22.75498962402344 C 30.84847831726074 21.89132881164551 28.78597831726074 19.82882881164551 27.92230796813965 17.23780822753906 C 27.34633827209473 15.5098991394043 25.79912757873535 15.3756103515625 25.33864784240723 15.3756103515625 M 25.33864784240723 12.37561416625977 C 27.61866760253906 12.37561416625977 29.8986873626709 13.68011856079102 30.76835823059082 16.28913116455078 C 31.33803749084473 17.9981689453125 32.67911529541016 19.33926010131836 34.38816833496094 19.90893936157227 C 39.60618591308594 21.64827919006348 39.60618591308594 29.02900886535645 34.38816833496094 30.76835060119629 L 34.38816833496094 30.76836013793945 C 32.67911529541016 31.33803939819336 31.33803749084473 32.67911911010742 30.76835823059082 34.38816070556641 L 30.76835823059082 34.38816833496094 C 29.8986873626709 36.9971809387207 27.61866760253906 38.30168533325195 25.33864784240723 38.30168533325195 C 23.05862808227539 38.30168533325195 20.77860832214355 36.9971809387207 19.90893745422363 34.38816833496094 L 19.90893745422363 34.38816070556641 C 19.33925819396973 32.67911911010742 17.9981689453125 31.33803939819336 16.28912734985352 30.76836013793945 L 16.28912734985352 30.76835060119629 C 11.07110595703125 29.02900886535645 11.07110595703125 21.64827919006348 16.28912734985352 19.90893936157227 C 17.9981689453125 19.33926010131836 19.33925819396973 17.9981689453125 19.90893745422363 16.28913116455078 C 20.77860832214355 13.68011856079102 23.05862808227539 12.37561416625977 25.33864784240723 12.37561416625977 Z" stroke="none" fill="#ffbc48"/>
    </g>
  </g>
</svg>
